:FULLY-SPECIFIED
:FORCE-ALL-JOINTS-BE-3DOF
:DEGREES
485
root 10.7729 17.191 31.7785 4.80873 4.34745 5.05422
lfemur 11.0938 1.87243 -29.4632
ltibia 3.91447 0 0
lfoot -15.6291 4.49889 0
ltoes 2.5539 0 0
rfemur -40.0125 11.5089 7.76904
rtibia 33.7703 0 0
rfoot -26.5031 -8.67634 0
rtoes -2.01983 0 0
lowerback -5.76119 -4.68672 -5.4035
upperback -0.245613 -5.91503 1.06408
thorax 3.64554 -3.04525 3.53538
lowerneck -22.349 -2.59055 -10.1486
upperneck 25.2546 -3.325 11.0368
head 12.4447 -1.01151 5.41153
lclavicle 1.52951e-14 1.98585e-14 0
lhumerus -14.7344 -22.5478 86.2859
lradius 32.9982 0 0
lwrist 4.65448 0 0
lhand -14.172 -25.8884 0
lfingers 7.12502 0 0
lthumb 11.9632 3.74796 0
rclavicle 1.52951e-14 1.98585e-14 0
rhumerus -50.0236 7.98003 -86.0812
rradius 35.7202 0 0
rwrist -17.7607 0 0
rhand -29.2122 -24.5614 0
rfingers 7.12502 0 0
rthumb -2.55666 -54.5251 0
486
root 10.7724 17.1828 31.9071 4.80377 4.43969 5.09643
lfemur 11.83 1.81216 -29.4354
ltibia 3.29821 0 0
lfoot -15.6894 4.50864 0
ltoes 2.57349 0 0
rfemur -40.4329 11.914 7.56895
rtibia 32.6841 0 0
rfoot -26.9715 -8.63828 0
rtoes -1.53443 0 0
lowerback -5.78081 -4.76782 -5.45059
upperback -0.207954 -6.02009 1.06426
thorax 3.71052 -3.09992 3.55067
lowerneck -22.3785 -2.55828 -10.1076
upperneck 25.2712 -3.29754 11.0563
head 12.4533 -0.992388 5.41792
lclavicle 1.70539e-14 2.02113e-14 0
lhumerus -14.5315 -22.8263 86.2094
lradius 33.354 0 0
lwrist 4.94393 0 0
lhand -14.2376 -25.9478 0
lfingers 7.12502 0 0
lthumb 11.8999 3.69224 0
rclavicle 1.70539e-14 2.02113e-14 0
rhumerus -50.0997 7.91865 -86.0156
rradius 35.7709 0 0
rwrist -17.9127 0 0
rhand -29.1757 -24.3385 0
rfingers 7.12502 0 0
rthumb -2.52137 -54.3028 0
487
root 10.772 17.1745 32.0357 4.79876 4.52753 5.13776
lfemur 12.5318 1.75522 -29.411
ltibia 2.71348 0 0
lfoot -15.7472 4.51722 0
ltoes 2.59381 0 0
rfemur -40.8369 12.2975 7.37707
rtibia 31.6613 0 0
rfoot -27.4166 -8.60405 0
rtoes -1.07416 0 0
lowerback -5.79901 -4.84537 -5.49612
upperback -0.172315 -6.1205 1.06414
thorax 3.77186 -3.15215 3.56527
lowerneck -22.4068 -2.52738 -10.0685
upperneck 25.2874 -3.27106 11.0745
head 12.4615 -0.974066 5.4239
lclavicle 1.87179e-14 2.05499e-14 0
lhumerus -14.3353 -23.091 86.1361
lradius 33.691 0 0
lwrist 5.21732 0 0
lhand -14.3004 -26.0046 0
lfingers 7.12502 0 0
lthumb 11.8393 3.6391 0
rclavicle 1.87179e-14 2.05499e-14 0
rhumerus -50.1739 7.85999 -85.9534
rradius 35.8187 0 0
rwrist -18.0565 0 0
rhand -29.1411 -24.1278 0
rfingers 7.12502 0 0
rthumb -2.48801 -54.0926 0
488
root 10.7715 17.1663 32.1643 4.79365 4.61068 5.17837
lfemur 13.1971 1.70191 -29.3906
ltibia 2.16264 0 0
lfoot -15.8025 4.52445 0
ltoes 2.61522 0 0
rfemur -41.2243 12.6577 7.19367
rtibia 30.7079 0 0
rfoot -27.8367 -8.57427 0
rtoes -0.640988 0 0
lowerback -5.8156 -4.91921 -5.54011
upperback -0.138865 -6.21602 1.06366
thorax 3.82924 -3.20182 3.57915
lowerneck -22.4337 -2.4979 -10.0315
upperneck 25.303 -3.24556 11.0913
head 12.4694 -0.956574 5.42946
lclavicle 2.02791e-14 2.08741e-14 0
lhumerus -14.1458 -23.3409 86.066
lradius 34.0077 0 0
lwrist 5.47324 0 0
lhand -14.3604 -26.0585 0
lfingers 7.12502 0 0
lthumb 11.7815 3.58869 0
rclavicle 2.02791e-14 2.08741e-14 0
rhumerus -50.2462 7.80419 -85.8951
rradius 35.8631 0 0
rwrist -18.1915 0 0
rhand -29.1088 -23.9306 0
rfingers 7.12502 0 0
rthumb -2.45674 -53.8958 0
489
root 10.7711 17.1581 32.2929 4.78839 4.68888 5.2184
lfemur 13.8241 1.65253 -29.3749
ltibia 1.64808 0 0
lfoot -15.8553 4.53011 0
ltoes 2.63809 0 0
rfemur -41.5946 12.9927 7.01902
rtibia 29.8302 0 0
rfoot -28.2301 -8.54955 0
rtoes -0.236845 0 0
lowerback -5.83041 -4.98918 -5.58258
upperback -0.107772 -6.30643 1.06274
thorax 3.88231 -3.24882 3.59227
lowerneck -22.4593 -2.4699 -9.99651
upperneck 25.3182 -3.22103 11.1064
head 12.477 -0.939942 5.43453
lclavicle 2.17296e-14 2.11833e-14 0
lhumerus -13.9628 -23.5751 85.9993
lradius 34.3025 0 0
lwrist 5.71026 0 0
lhand -14.4175 -26.1094 0
lfingers 7.12502 0 0
lthumb 11.7264 3.54114 0
rclavicle 2.17296e-14 2.11833e-14 0
rhumerus -50.3168 7.75138 -85.8409
rradius 35.9039 0 0
rwrist -18.3169 0 0
rhand -29.0787 -23.7478 0
rfingers 7.12502 0 0
rthumb -2.42774 -53.7135 0
490
root 10.7706 17.1499 32.4215 4.78292 4.76185 5.25803
lfemur 14.4105 1.60738 -29.3644
ltibia 1.17216 0 0
lfoot -15.9055 4.534 0
ltoes 2.66276 0 0
rfemur -41.9476 13.3007 6.85337
rtibia 29.0343 0 0
rfoot -28.5954 -8.53052 0
rtoes 0.13632 0 0
lowerback -5.84325 -5.05512 -5.62357
upperback -0.0792048 -6.39149 1.06131
thorax 3.93077 -3.29302 3.6046
lowerneck -22.4834 -2.44342 -9.96379
upperneck 25.333 -3.19748 11.1197
head 12.4841 -0.9242 5.43908
lclavicle 2.30613e-14 2.14773e-14 0
lhumerus -13.7862 -23.7927 85.936
lradius 34.574 0 0
lwrist 5.92696 0 0
lhand -14.4715 -26.1572 0
lfingers 7.12502 0 0
lthumb 11.6744 3.49661 0
rclavicle 2.30613e-14 2.14773e-14 0
rhumerus -50.3859 7.70169 -85.7911
rradius 35.9407 0 0
rwrist -18.432 0 0
rhand -29.0512 -23.5806 0
rfingers 7.12502 0 0
rthumb -2.40117 -53.5466 0
491
root 10.7701 17.1416 32.55 4.77719 4.8293 5.2974
lfemur 14.9545 1.56674 -29.3598
ltibia 0.737263 0 0
lfoot -15.953 4.53592 0
ltoes 2.6896 0 0
rfemur -42.2828 13.5801 6.697
rtibia 28.3263 0 0
rfoot -28.9307 -8.51778 0
rtoes 0.476561 0 0
lowerback -5.85394 -5.11685 -5.6631
upperback -0.0533309 -6.471 1.05931
thorax 3.97427 -3.33431 3.6161
lowerneck -22.506 -2.41853 -9.9334
upperneck 25.3473 -3.17491 11.1312
head 12.4909 -0.909376 5.44307
lclavicle 2.42664e-14 2.17557e-14 0
lhumerus -13.6158 -23.9926 85.8763
lradius 34.8205 0 0
lwrist 6.12192 0 0
lhand -14.5224 -26.2016 0
lfingers 7.12502 0 0
lthumb 11.6253 3.45523 0
rclavicle 2.42664e-14 2.17557e-14 0
rhumerus -50.4538 7.65526 -85.746
rradius 35.9733 0 0
rwrist -18.5362 0 0
rhand -29.0264 -23.4299 0
rfingers 7.12502 0 0
rthumb -2.37719 -53.3963 0
